<svg xmlns="http://www.w3.org/2000/svg" width="110" height="110" viewBox="0 0 110 110"><g fill="none" stroke="#ffc840" stroke-width="1"><circle cx="55" cy="55" r="55" stroke="none"/><circle cx="55" cy="55" r="54.5" fill="none"/></g><g transform="translate(26 23)"><g transform="translate(0.938 0.938)"><path d="M7.5,150.273H63.676v44.278H7.5Zm0,0" transform="translate(-7.5 -132.426)" fill="#fff"/><path d="M98.92,19.4H95.531l-.976-.976V8.477l.976-.976H98.92l.976.976v9.946Zm0,0" transform="translate(-83.673 -7.5)" fill="#fff"/><path d="M328.109,19.4H331.5l.976-.976V8.477L331.5,7.5h-3.389l-.976.976v9.946Zm0,0" transform="translate(-287.179 -7.5)" fill="#fff"/></g><path d="M52.794,55.09v4.973l-.976.976H48.43l-.976-.976V55.09H23.722v4.973l-.976.976H19.358l-.976-.976V55.09H7.5v11.9H63.676V55.09Zm0,0" transform="translate(-6.562 -48.204)" fill="#ffc840"/><path d="M128.736,214.9l-6.209-6.21-15.571,15.572-6.5-6.5-6.209,6.209,12.709,12.709Zm0,0" transform="translate(-82.465 -182.605)" fill="#ffc840"/><path d="M7.5,150.273h3.75v44.278H7.5Zm0,0" transform="translate(-6.562 -131.489)" fill="#fff"/><path d="M98.3,18.422V8.476l.8-.8L98.92,7.5H95.531l-.976.976v9.946l.976.976H98.92l.181-.181Zm0,0" transform="translate(-82.736 -6.563)" fill="#fff"/><path d="M330.883,18.422V8.476l.795-.8L331.5,7.5h-3.389l-.976.976v9.946l.976.976H331.5l.181-.181Zm0,0" transform="translate(-286.241 -6.563)" fill="#fff"/><path d="M363.673,61.039h3.389l.976-.976V55.09h-3.75v4.973l-.8.795Zm0,0" transform="translate(-318.056 -48.204)" fill="#ffc840"/><path d="M7.5,55.09h3.75v11.9H7.5Zm0,0" transform="translate(-6.562 -48.204)" fill="#ffc840"/><path d="M131.1,61.039h3.389l.976-.976V55.09h-3.75v4.973l-.795.795Zm0,0" transform="translate(-114.553 -48.204)" fill="#ffc840"/><path d="M98,287.479l4.334-4.334-1.875-1.875-6.209,6.209,12.709,12.709,1.875-1.875Zm0,0" transform="translate(-82.465 -246.11)" fill="#ffc840"/><path d="M217.2,97.059h-1.875V95.184H217.2Zm-3.125,0H212.2V95.184h1.875Zm0,0" transform="translate(-185.678 -83.286)" fill="#fff"/><path d="M56.176,211.114H1.875V170.273H0v42.716H58.051V170.273H56.176Zm0,0" transform="translate(0 -148.989)" fill="#397797"/><path d="M92.745,13.773l1.525-1.525V1.525L92.745,0H88.58L87.055,1.525V12.248l1.525,1.525ZM88.93,2.3l.427-.427h2.612l.427.427v9.169l-.427.427H89.356l-.427-.427Zm0,0" transform="translate(-76.173 0)" fill="#397797"/><path d="M325.323,13.773l1.525-1.525V1.525L325.323,0h-4.165l-1.525,1.525V12.248l1.525,1.525ZM321.508,2.3l.427-.427h2.612l.427.427v9.169l-.427.427h-2.612l-.427-.427Zm0,0" transform="translate(-279.678 0)" fill="#397797"/><path d="M48.732,47.59v1.875h7.444V59.488H1.875V49.465H9.319V47.59H0V61.363H58.051V47.59Zm0,0" transform="translate(0 -41.641)" fill="#397797"/><path d="M157.277,47.59h18.732v1.875H157.277Zm0,0" transform="translate(-137.617 -41.641)" fill="#397797"/><path d="M113.243,198.086,97.672,213.657l-6.5-6.5-7.536,7.536,14.035,14.035,23.107-23.106ZM86.288,214.693l4.884-4.884,6.5,6.5,15.571-15.571,4.884,4.884L97.672,226.077Zm0,0" transform="translate(-73.182 -173.325)" fill="#fff"/></g></svg>