<svg id="calendar" xmlns="http://www.w3.org/2000/svg" width="18" height="18" viewBox="0 0 18 18">
  <path id="Path_833" data-name="Path 833" d="M15.937,59.168H2.063A2.064,2.064,0,0,1,0,57.105V44.73a2.064,2.064,0,0,1,2.063-2.062H15.937A2.064,2.064,0,0,1,18,44.73V57.105A2.064,2.064,0,0,1,15.937,59.168ZM2.063,43.793a.939.939,0,0,0-.938.937V57.105a.939.939,0,0,0,.938.938H15.937a.939.939,0,0,0,.938-.938V44.73a.939.939,0,0,0-.938-.937Zm0,0" transform="translate(0 -41.168)" fill="#397797"/>
  <path id="Path_834" data-name="Path 834" d="M17.438,171.793H.563a.563.563,0,0,1,0-1.125H17.438a.563.563,0,0,1,0,1.125Zm0,0" transform="translate(0 -164.668)" fill="#397797"/>
  <path id="Path_835" data-name="Path 835" d="M107.23,4.5a.563.563,0,0,1-.562-.562V.563a.563.563,0,0,1,1.125,0V3.938A.563.563,0,0,1,107.23,4.5Zm0,0" transform="translate(-102.918)" fill="#397797"/>
  <path id="Path_836" data-name="Path 836" d="M373.895,4.5a.563.563,0,0,1-.562-.562V.563a.563.563,0,0,1,1.125,0V3.938A.563.563,0,0,1,373.895,4.5Zm0,0" transform="translate(-360.207)" fill="#397797"/>
</svg>
