<svg id="clock" xmlns="http://www.w3.org/2000/svg" width="18" height="18" viewBox="0 0 18 18">
  <path id="Path_837" data-name="Path 837" d="M9,18a9,9,0,1,1,9-9A9.01,9.01,0,0,1,9,18ZM9,1.125A7.875,7.875,0,1,0,16.875,9,7.884,7.884,0,0,0,9,1.125Zm0,0" fill="#afafaf"/>
  <path id="Path_838" data-name="Path 838" d="M244.5,111.645a.558.558,0,0,1-.4-.165l-3.937-3.937a.563.563,0,0,1-.165-.4v-5.25a.563.563,0,1,1,1.125,0v5.017l3.773,3.773a.563.563,0,0,1-.4.961Zm0,0" transform="translate(-231.563 -97.77)" fill="#afafaf"/>
</svg>
