<svg xmlns="http://www.w3.org/2000/svg" width="110" height="110" viewBox="0 0 110 110"><g fill="none" stroke="#ffc840" stroke-width="1"><circle cx="55" cy="55" r="55" stroke="none"/><circle cx="55" cy="55" r="54.5" fill="none"/></g><g transform="translate(20 20)"><g transform="translate(1.367 1.367)"><path d="M26.6,89.807H15.816A5.816,5.816,0,0,0,10,95.623v6.805H32.412V95.623A5.816,5.816,0,0,0,26.6,89.807Z" transform="translate(-10 -78.896)" fill="#ffc840"/><path d="M62.825,10a4.614,4.614,0,0,0-4.615,4.615V16.3a4.615,4.615,0,0,0,9.229,0V14.615A4.614,4.614,0,0,0,62.825,10Z" transform="translate(-51.619 -10)" fill="#ffcbbe"/><g transform="translate(22.427)"><path d="M190.634,89.807h-10.78a5.816,5.816,0,0,0-5.816,5.816v6.805H196.45V95.623A5.816,5.816,0,0,0,190.634,89.807Z" transform="translate(-174.038 -78.896)" fill="#efefef"/><path d="M226.862,10a4.614,4.614,0,0,0-4.614,4.615V16.3a4.615,4.615,0,1,0,9.229,0V14.615A4.614,4.614,0,0,0,226.862,10Z" transform="translate(-215.657 -10)" fill="#ffbf9e"/></g><g transform="translate(44.854)"><path d="M354.672,89.807h-10.78a5.816,5.816,0,0,0-5.816,5.816v6.805h22.412V95.623A5.816,5.816,0,0,0,354.672,89.807Z" transform="translate(-338.076 -78.896)" fill="#ffc840"/><path d="M390.9,10a4.614,4.614,0,0,0-4.615,4.615V16.3a4.615,4.615,0,0,0,9.229,0V14.615A4.615,4.615,0,0,0,390.9,10Z" transform="translate(-379.695 -10)" fill="#ffcbbe"/></g></g><g transform="translate(20.459 20.316)"><path d="M231.662,347.863a3.856,3.856,0,0,1-3.856-3.856V323.452h7.712v20.555a3.856,3.856,0,0,1-3.856,3.856Z" transform="translate(-217.12 -299.546)" fill="#ffcb7c"/><circle cx="14.541" cy="14.541" r="14.541" fill="#fff"/></g><path d="M62.817,10.911h-.371a5.945,5.945,0,0,0,.962-3.247V5.982a5.982,5.982,0,1,0-11.963,0V7.664a5.944,5.944,0,0,0,.962,3.247h-.371A7.177,7.177,0,0,0,46.214,13.9a7.177,7.177,0,0,0-5.823-2.985H40.02a5.945,5.945,0,0,0,.962-3.247V5.982a5.982,5.982,0,0,0-11.964,0V7.664a5.943,5.943,0,0,0,.962,3.247H29.61A7.177,7.177,0,0,0,23.787,13.9a7.176,7.176,0,0,0-5.823-2.985h-.371a5.945,5.945,0,0,0,.962-3.247V5.982a5.982,5.982,0,1,0-11.963,0V7.664a5.945,5.945,0,0,0,.962,3.247H7.183A7.191,7.191,0,0,0,0,18.094V24.9a1.367,1.367,0,0,0,1.367,1.367H21.617a15.9,15.9,0,0,0,8.162,23.616V64.777a5.223,5.223,0,1,0,10.447,0V49.883a15.831,15.831,0,0,0,3.355-1.629,1.367,1.367,0,1,0-1.477-2.3,13.175,13.175,0,1,1,6.07-11.1,13.359,13.359,0,0,1-.144,1.953,1.367,1.367,0,1,0,2.7.4,16.078,16.078,0,0,0,.173-2.354,15.814,15.814,0,0,0-2.524-8.59H68.633A1.367,1.367,0,0,0,70,24.9V18.094a7.191,7.191,0,0,0-7.183-7.183ZM37.49,50.567V64.777a2.489,2.489,0,1,1-4.978,0V50.569a15.9,15.9,0,0,0,4.978,0ZM54.18,7.664V5.982a3.247,3.247,0,1,1,6.495,0V7.664a3.247,3.247,0,1,1-6.495,0Zm-22.427,0V5.982a3.247,3.247,0,1,1,6.495,0V7.664a3.247,3.247,0,0,1-6.495,0Zm-22.427,0V5.982a3.247,3.247,0,1,1,6.495,0V7.664a3.247,3.247,0,1,1-6.495,0ZM2.734,18.094a4.453,4.453,0,0,1,4.448-4.448h10.78a4.453,4.453,0,0,1,4.448,4.448v5.438H2.734ZM35,18.949a15.83,15.83,0,0,0-9.839,3.416V18.094a4.453,4.453,0,0,1,4.448-4.448H40.39a4.453,4.453,0,0,1,4.448,4.448v4.271A15.83,15.83,0,0,0,35,18.949Zm32.266,4.583H47.588V18.094a4.453,4.453,0,0,1,4.448-4.448h10.78a4.453,4.453,0,0,1,4.448,4.448Z" transform="translate(0 0)" fill="#397797"/><path d="M221.39,223.429l-5.027,5.027-2.451-2.451a1.367,1.367,0,0,0-1.934,1.934l3.418,3.418a1.367,1.367,0,0,0,1.934,0l5.994-5.994a1.367,1.367,0,0,0-1.933-1.934Z" transform="translate(-182.651 -192.537)" fill="#ffc840"/><path d="M336.627,302.79a1.368,1.368,0,1,0,.967.4A1.377,1.377,0,0,0,336.627,302.79Z" transform="translate(-289.423 -261.393)" fill="#397797"/></g></svg>