<svg xmlns="http://www.w3.org/2000/svg" width="110" height="110" viewBox="0 0 110 110">
  <g id="Create" transform="translate(-0.5)">
    <g id="Compare-Ellipse" transform="translate(0.5)" fill="none" stroke="#ffc840" stroke-width="1">
      <circle cx="55" cy="55" r="55" stroke="none"/>
      <circle cx="55" cy="55" r="54.5" fill="none"/>
    </g>
    <g id="pen" transform="translate(22.5 18.551)">
      <rect id="Rectangle_282" data-name="Rectangle 282" width="54" height="54" rx="10" transform="translate(3 13.449)" fill="#fff"/>
      <path id="Path_1118" data-name="Path 1118" d="M216.276,161.915,203.9,166.029l4.115-12.377Zm0,0" transform="translate(-170.997 -128.482)" fill="#f8ec7d"/>
      <path id="Path_1119" data-name="Path 1119" d="M260.783,18.7,237.66,41.819,229.4,33.557,252.522,10.45Zm0,0" transform="translate(-192.381 -8.387)" fill="#ffc840"/>
      <g id="Group_939" data-name="Group 939" transform="translate(0 0.449)">
        <path id="Path_1120" data-name="Path 1120" d="M223.871.917a1.6,1.6,0,0,0-1.146-.468,1.664,1.664,0,0,0-1.145.468L198.472,24.024l-.064.064-.032.033a.837.837,0,0,0-.113.145c-.033.049-.065.113-.1.161a.058.058,0,0,1-.016.032c-.016.049-.048.1-.064.146,0,.016,0,.016-.016.032l-4.115,12.409a1.589,1.589,0,0,0,.388,1.646,1.623,1.623,0,0,0,1.145.468A1.914,1.914,0,0,0,196,39.08l12.377-4.131c.016,0,.016,0,.032-.016a.576.576,0,0,0,.145-.065c.016,0,.033-.016.049-.016.049-.033.113-.065.161-.1a.936.936,0,0,0,.146-.113c.016-.016.032-.016.032-.032.016-.016.049-.033.064-.065l23.124-23.107a1.6,1.6,0,0,0,.468-1.146,1.665,1.665,0,0,0-.468-1.145ZM198.037,35l2.275-6.842,4.567,4.566Zm9.827-3.856-5.97-5.97L222.726,4.338l5.97,5.97Zm0,0" transform="translate(-162.585 -0.449)" fill="#397797"/>
        <path id="Path_1121" data-name="Path 1121" d="M57.478,87.3a1.618,1.618,0,0,0-1.614,1.614v30.159a4.854,4.854,0,0,1-4.841,4.841H8.068a4.855,4.855,0,0,1-4.841-4.841V76.119a4.855,4.855,0,0,1,4.841-4.841H38.227a1.614,1.614,0,1,0,0-3.227H8.068A8.072,8.072,0,0,0,0,76.119v42.955a8.071,8.071,0,0,0,8.068,8.068H51.023a8.071,8.071,0,0,0,8.068-8.068V88.916A1.618,1.618,0,0,0,57.478,87.3Zm0,0" transform="translate(0 -57.142)" fill="#397797"/>
      </g>
    </g>
  </g>
</svg>
