<svg xmlns="http://www.w3.org/2000/svg" width="110" height="110" viewBox="0 0 110 110">
  <g id="Earn" transform="translate(-0.5)">
    <g id="book-Ellipse" transform="translate(0.5)" fill="none" stroke="#ffc840" stroke-width="1">
      <circle cx="55" cy="55" r="55" stroke="none"/>
      <circle cx="55" cy="55" r="54.5" fill="none"/>
    </g>
    <g id="Page-1" transform="translate(16.499 19.703)">
      <g id="_087---Money-Percentage" data-name="087---Money-Percentage" transform="translate(0.002 -0.001)">
        <path id="Oval" d="M16.2,32.407A16.2,16.2,0,0,1,0,16.2C0,7.254,25.152,32.407,16.2,32.407Z" transform="translate(41.478 1.298)" fill="#ef314c"/>
        <circle id="Oval-2" data-name="Oval" cx="29.166" cy="29.166" r="29.166" transform="translate(1.294 2.594)" fill="#fff"/>
        <circle id="Oval-3" data-name="Oval" cx="19.444" cy="19.444" r="19.444" transform="translate(37.59 29.816)" fill="#ffc840"/>
        <path id="Shape" d="M44.444,24c-.656,0-1.305.035-1.944.1a19.444,19.444,0,0,1,0,38.691c.639.064,1.288.1,1.944.1a19.444,19.444,0,1,0,0-38.888Z" transform="translate(12.589 5.816)" fill="#fec108"/>
        <path id="Shape-2" data-name="Shape" d="M14.3,42.514A1.3,1.3,0,0,1,13.38,40.3L39.305,14.376a1.3,1.3,0,0,1,1.833,1.833L15.213,42.134a1.3,1.3,0,0,1-.916.38Z" transform="translate(3.849 2.857)" fill="#397797"/>
        <path id="Shape-3" data-name="Shape" d="M19.481,26.963a6.481,6.481,0,1,1,6.481-6.481A6.481,6.481,0,0,1,19.481,26.963Zm0-10.37a3.889,3.889,0,1,0,3.889,3.889A3.889,3.889,0,0,0,19.481,16.593Z" transform="translate(3.849 2.853)" fill="#397797"/>
        <path id="Shape-4" data-name="Shape" d="M30.9,38.926a1.373,1.373,0,0,1-.144-.008,6.481,6.481,0,1,1,5.919-10.3A1.3,1.3,0,0,1,34.6,30.15a3.889,3.889,0,1,0-3.547,6.188,1.3,1.3,0,0,1-.14,2.585Z" transform="translate(7.401 6.407)" fill="#397797"/>
        <g id="Group_938" data-name="Group 938">
          <path id="Shape-5" data-name="Shape" d="M28,43.74A20.74,20.74,0,1,0,48.74,23,20.74,20.74,0,0,0,28,43.74ZM48.74,61.888A18.148,18.148,0,1,1,66.888,43.74,18.148,18.148,0,0,1,48.74,61.888Z" transform="translate(8.293 5.52)" fill="#397797"/>
          <path id="Shape-6" data-name="Shape" d="M50.963,36.426a1.3,1.3,0,0,0,2.593,0A7.35,7.35,0,0,0,47.074,29.4V29.3a1.3,1.3,0,0,0-2.593,0V29.4A7.35,7.35,0,0,0,38,36.426a7.35,7.35,0,0,0,6.481,7.022v9.021a4.692,4.692,0,0,1-3.889-4.376,1.3,1.3,0,0,0-2.593,0,7.35,7.35,0,0,0,6.481,7.022v.108a1.3,1.3,0,1,0,2.593,0v-.108a7.044,7.044,0,0,0,0-14.044V32.05A4.692,4.692,0,0,1,50.963,36.426Zm-10.37,0a4.692,4.692,0,0,1,3.889-4.376V40.8A4.692,4.692,0,0,1,40.593,36.426Zm10.37,11.666a4.692,4.692,0,0,1-3.889,4.376V43.716A4.692,4.692,0,0,1,50.963,48.092Z" transform="translate(11.256 7.001)" fill="#397797"/>
          <path id="Shape-7" data-name="Shape" d="M30.462,60.479a30.813,30.813,0,0,0,4.9-.389,1.3,1.3,0,1,0-.412-2.559,28.4,28.4,0,0,1-4.486.355A27.87,27.87,0,0,1,8.895,12.368a1.3,1.3,0,0,0-2-1.646,30.462,30.462,0,0,0,23.57,49.757Z" transform="translate(-0.002 1.743)" fill="#397797"/>
          <path id="Shape-8" data-name="Shape" d="M54.835,25.709a1.3,1.3,0,0,0,1.257.985,1.355,1.355,0,0,0,.312-.038,1.3,1.3,0,0,0,.946-1.57A30.461,30.461,0,0,0,9.519,8.092a1.3,1.3,0,0,0,1.556,2.074A27.871,27.871,0,0,1,54.835,25.709Z" transform="translate(2.664 -0.702)" fill="#397797"/>
        </g>
      </g>
    </g>
  </g>
</svg>
