<svg xmlns="http://www.w3.org/2000/svg" width="20" height="20" viewBox="0 0 20 20"><path d="M17.708,61H2.292A2.294,2.294,0,0,1,0,58.709V44.959a2.293,2.293,0,0,1,2.292-2.292H17.708A2.293,2.293,0,0,1,20,44.959v13.75A2.294,2.294,0,0,1,17.708,61ZM2.292,43.918A1.043,1.043,0,0,0,1.25,44.959v13.75a1.043,1.043,0,0,0,1.042,1.042H17.708a1.043,1.043,0,0,0,1.042-1.042V44.959a1.043,1.043,0,0,0-1.042-1.042Zm0,0" transform="translate(0 -41.001)" fill="#afafaf"/><path d="M19.375,171.918H.625a.625.625,0,0,1,0-1.25h18.75a.625.625,0,0,1,0,1.25Zm0,0" transform="translate(0 -164.001)" fill="#afafaf"/><path d="M107.293,5a.625.625,0,0,1-.625-.625V.625a.625.625,0,0,1,1.25,0v3.75A.625.625,0,0,1,107.293,5Zm0,0" transform="translate(-102.501)" fill="#afafaf"/><path d="M373.957,5a.625.625,0,0,1-.625-.625V.625a.625.625,0,0,1,1.25,0v3.75A.625.625,0,0,1,373.957,5Zm0,0" transform="translate(-358.749)" fill="#afafaf"/></svg>