<svg id="Icon_facebook" data-name="Icon / facebook" xmlns="http://www.w3.org/2000/svg" width="30" height="30" viewBox="0 0 30 30">
  <path id="Path_767" data-name="Path 767" d="M297.277,508.668q-3.2.521-6.422.961Q294.078,509.189,297.277,508.668Zm0,0" transform="translate(-277.291 -482)" fill="#fff"/>
  <path id="Path_768" data-name="Path 768" d="M302.4,507.793c-1.02.188-2.039.359-3.059.535C300.359,508.152,301.378,507.98,302.4,507.793Zm0,0" transform="translate(-283.494 -482)" fill="#fff"/>
  <path id="Path_769" data-name="Path 769" d="M285.137,510.34q-3.744.422-7.527.742Q281.389,510.766,285.137,510.34Zm0,0" transform="translate(-265.243 -482)" fill="#fff"/>
  <path id="Path_770" data-name="Path 770" d="M290.055,509.738c-1.2.16-2.406.309-3.609.449C287.649,510.047,288.856,509.9,290.055,509.738Zm0,0" transform="translate(-271.576 -482)" fill="#fff"/>
  <path id="Path_771" data-name="Path 771" d="M309.367,506.41c-.9.191-1.8.383-2.7.566C307.566,506.793,308.469,506.6,309.367,506.41Zm0,0" transform="translate(-290.228 -482)" fill="#fff"/>
  <path id="Path_772" data-name="Path 772" d="M326.664,502.113c-.727.207-1.453.4-2.18.605C325.211,502.515,325.937,502.32,326.664,502.113Zm0,0" transform="translate(-306.778 -482)" fill="#fff"/>
  <path id="Path_773" data-name="Path 773" d="M321.434,503.543c-.789.207-1.582.418-2.375.617Q320.248,503.861,321.434,503.543Zm0,0" transform="translate(-301.764 -482)" fill="#fff"/>
  <path id="Path_774" data-name="Path 774" d="M314.59,505.254c-.836.2-1.68.379-2.523.566C312.91,505.633,313.754,505.449,314.59,505.254Zm0,0" transform="translate(-295.237 -482)" fill="#fff"/>
  <path id="Path_775" data-name="Path 775" d="M277.527,511.09q-2.021.17-4.047.3Q275.507,511.26,277.527,511.09Zm0,0" transform="translate(-259.507 -482)" fill="#fff"/>
  <path id="Path_776" data-name="Path 776" d="M30,15A15,15,0,1,0,15,30c.088,0,.176,0,.264,0V18.32H12.041V14.564h3.223V11.8c0-3.205,1.957-4.95,4.816-4.95A26.528,26.528,0,0,1,22.969,7v3.35H21c-1.555,0-1.857.739-1.857,1.824v2.392H22.86l-.485,3.756H19.14v11.1A15.008,15.008,0,0,0,30,15Zm0,0" fill="#fff"/>
  <path id="Path_777" data-name="Path 777" d="M272.914,511.43q-4,.258-8.023.4Q268.916,511.694,272.914,511.43Zm0,0" transform="translate(-253.34 -482)" fill="#fff"/>
  <path id="Path_778" data-name="Path 778" d="M264.754,511.836q-2.121.07-4.25.105Q262.631,511.906,264.754,511.836Zm0,0" transform="translate(-247.293 -482)" fill="#fff"/>
</svg>
