<svg xmlns="http://www.w3.org/2000/svg" width="25" height="23.051" viewBox="0 0 25 23.051">
  <g id="Icon_company" data-name="Icon / company" transform="translate(-723 -322.159)">
    <path id="Path_80" data-name="Path 80" d="M24.8,23.722H23.726V10.693h.044a.494.494,0,1,0,0-.988H20.048c.354.063-6.032.063-5.277,0H11.359V6.182h.051a.494.494,0,0,0,0-.988H10.19V2.153a.494.494,0,1,0-.988,0v1.12h-2.3a.494.494,0,0,0-.494.494V5.194H1.037a.494.494,0,1,0,0,.988v17.54H.494a.494.494,0,0,0,0,.988H24.8c.273,0,.273-.988,0-.988ZM13.692,7.677ZM19.06,9.705ZM7.4,4.261H9.2v.933H7.4ZM2.025,6.182h8.346v7.135a.494.494,0,0,0,.988,0V10.693h11.38V20.12H11.359V17.761a.494.494,0,1,0-.988,0v5.961H2.025Zm9.334,14.926h3.805v2.615H11.359Zm4.793,2.615V21.107H18.02v2.615Zm2.856,0V21.107h3.73v2.615Zm0,0" transform="translate(723 320.499)" fill="#397797"/>
    <path id="Path_83" data-name="Path 83" d="M72.271,128.586H67.423a.494.494,0,0,0-.494.494v4.848a.494.494,0,0,0,.494.494h4.847a.494.494,0,0,0,.494-.494V129.08A.494.494,0,0,0,72.271,128.586Zm-.494,2.424H70.341v-1.436h1.436Zm-3.86-1.436h1.436v1.436H67.917Zm0,2.424h1.436v1.436H67.917Zm3.86,1.436H70.341V132h1.436Zm0,0" transform="translate(659.377 199.392)" fill="#397797"/>
    <path id="Path_84" data-name="Path 84" d="M72.271,362.094H67.423a.494.494,0,0,0-.494.494v2.424a.494.494,0,0,0,.494.494h4.847a.494.494,0,0,0,.494-.494v-2.424A.494.494,0,0,0,72.271,362.094Zm-4.354.988h1.436v1.436H67.917Zm3.86,1.436H70.341v-1.436h1.436Zm0,0" transform="translate(659.377 -22.582)" fill="#397797"/>
    <path id="Path_85" data-name="Path 85" d="M72.271,269.875H67.423a.494.494,0,0,0-.494.494v2.424a.494.494,0,0,0,.494.494h4.847a.494.494,0,0,0,.494-.494v-2.424A.494.494,0,0,0,72.271,269.875Zm-4.354.988h1.436V272.3H67.917Zm3.86,1.436H70.341v-1.436h1.436Zm0,0" transform="translate(659.377 65.082)" fill="#397797"/>
    <path id="Path_88" data-name="Path 88" d="M210.215,282.667a.494.494,0,1,0-.188-.584A.5.5,0,0,0,210.215,282.667Zm0,0" transform="translate(523.376 53.781)" fill="#397797"/>
    <path id="plane" d="M.96,4.448a.181.181,0,0,0-.069.219l.317.807a.154.154,0,0,0,.079.087.122.122,0,0,0,.107,0l2.4-1.326-.217,2.69a.184.184,0,0,0,.046.14.563.563,0,0,0,.372.167A.387.387,0,0,0,4.1,7.209c.195-.06.345-.266.448-.616L5.5,3.283,7.364,2.251a1.2,1.2,0,0,0,.643-1.4A.729.729,0,0,0,7.456.393a1.128,1.128,0,0,0-.77.14L4.53,1.731,2.212.657a.619.619,0,0,0-.685.012.739.739,0,0,0-.21.54.177.177,0,0,0,.061.132L2.938,2.612l-.894.5-1.5-.451a.134.134,0,0,0-.156.08l-.374.8a.194.194,0,0,0-.008.137.157.157,0,0,0,.082.1l1.11.543Zm.646-3.323a.3.3,0,0,1,.085-.18c.08-.069.227-.058.423.028l2.064.954-.942.521ZM.337,3.537l.245-.516,1.442.424a.121.121,0,0,0,.093-.01L6.806.841a.89.89,0,0,1,.6-.114.444.444,0,0,1,.344.264.88.88,0,0,1-.508.957l-1.624.9.1-.346a.178.178,0,0,0-.091-.215.14.14,0,0,0-.181.108L4.286,6.489c-.069.232-.155.371-.251.4a.208.208,0,0,1-.172-.038l.282-3.508a.162.162,0,0,0-.128-.183.15.15,0,0,0-.154.151l-.044.536L1.4,5.184l-.2-.5.4-.22a.181.181,0,0,0,0-.306Zm0,0" transform="translate(736.122 332.18)" fill="#397797" stroke="#397797" stroke-width="0.5"/>
  </g>
</svg>
