<svg id="Icon_copyright" data-name="Icon / copyright" xmlns="http://www.w3.org/2000/svg" width="12" height="12" viewBox="0 0 12 12">
  <path id="Path_848" data-name="Path 848" d="M6,12a6,6,0,1,1,6-6A6.007,6.007,0,0,1,6,12ZM6,.75A5.25,5.25,0,1,0,11.25,6,5.256,5.256,0,0,0,6,.75Z" fill="#397797"/>
  <path id="Path_849" data-name="Path 849" d="M113.823,116.823a3,3,0,1,1,2.143-5.1l-.536.524a2.25,2.25,0,1,0,0,3.149l.535.525A2.976,2.976,0,0,1,113.823,116.823Z" transform="translate(-107.823 -107.823)" fill="#397797"/>
</svg>
