<svg xmlns="http://www.w3.org/2000/svg" width="60" height="50" viewBox="0 0 60 50">
  <g id="mastercard" transform="translate(-1142 -9104)">
    <rect id="Rectangle_59" data-name="Rectangle 59" width="60" height="50" rx="5" transform="translate(1142 9104)" fill="#fff"/>
    <g id="Icon_mastercard" data-name="Icon / mastercard" transform="translate(1153 9118)">
      <path id="Path_850" data-name="Path 850" d="M224.1,112.05a11.25,11.25,0,0,1-22.5,0h0a11.25,11.25,0,1,1,22.5,0Z" transform="translate(-186.6 -100.8)" fill="#ffb600"/>
      <path id="Path_851" data-name="Path 851" d="M212.85,100.8a11.279,11.279,0,0,1,11.25,11.25h0a11.25,11.25,0,0,1-22.5,0" transform="translate(-186.6 -100.8)" fill="#f7981d"/>
      <path id="Path_852" data-name="Path 852" d="M352.8,100.8a11.279,11.279,0,0,1,11.25,11.25h0A11.241,11.241,0,0,1,352.8,123.3" transform="translate(-326.55 -100.8)" fill="#ff8500"/>
      <path id="Path_853" data-name="Path 853" d="M11.131,100.8a11.25,11.25,0,0,0,.119,22.5,11.381,11.381,0,0,0,7.56-2.917h0a10.7,10.7,0,0,0,1.131-1.19H17.619a13.733,13.733,0,0,1-.833-1.131h3.988a7.625,7.625,0,0,0,.655-1.19h-5.3a7.1,7.1,0,0,1-.476-1.19h6.19a11.819,11.819,0,0,0,.6-3.571,15.364,15.364,0,0,0-.238-2.381H15.3a8.7,8.7,0,0,1,.3-1.19h6.19a7.094,7.094,0,0,0-.476-1.19H16.071a11.806,11.806,0,0,1,.655-1.19h3.988a5.66,5.66,0,0,0-.893-1.19h-2.2a10.146,10.146,0,0,1,1.131-1.131,10.984,10.984,0,0,0-7.56-2.917C11.19,100.8,11.19,100.8,11.131,100.8Z" transform="translate(0 -100.8)" fill="#ff5050"/>
      <path id="Path_854" data-name="Path 854" d="M0,113.531a11.241,11.241,0,0,0,11.25,11.25,11.381,11.381,0,0,0,7.56-2.917h0a10.7,10.7,0,0,0,1.131-1.19H17.619a13.731,13.731,0,0,1-.833-1.131h3.988a7.626,7.626,0,0,0,.655-1.19h-5.3a7.094,7.094,0,0,1-.476-1.19h6.19a11.819,11.819,0,0,0,.6-3.571,15.364,15.364,0,0,0-.238-2.381H15.3a8.7,8.7,0,0,1,.3-1.19h6.19a7.094,7.094,0,0,0-.476-1.19H16.071a11.8,11.8,0,0,1,.655-1.19h3.988a5.66,5.66,0,0,0-.893-1.19h-2.2a10.146,10.146,0,0,1,1.131-1.131,10.984,10.984,0,0,0-7.56-2.917h-.06" transform="translate(0 -102.281)" fill="#e52836"/>
      <path id="Path_855" data-name="Path 855" d="M149.719,124.781a11.381,11.381,0,0,0,7.56-2.917h0a10.694,10.694,0,0,0,1.131-1.19h-2.321a13.731,13.731,0,0,1-.833-1.131h3.988a7.627,7.627,0,0,0,.655-1.19h-5.3a7.092,7.092,0,0,1-.476-1.19h6.19a11.819,11.819,0,0,0,.6-3.571,15.366,15.366,0,0,0-.238-2.381h-6.9a8.7,8.7,0,0,1,.3-1.19h6.19a7.1,7.1,0,0,0-.476-1.19H154.54a11.8,11.8,0,0,1,.655-1.19h3.988a5.661,5.661,0,0,0-.893-1.19h-2.2a10.146,10.146,0,0,1,1.131-1.131,10.984,10.984,0,0,0-7.56-2.917h-.06" transform="translate(-138.469 -102.281)" fill="#cb2026"/>
      <g id="Group_255" data-name="Group 255" transform="translate(1.071 8.333)">
        <path id="Path_856" data-name="Path 856" d="M183.326,225.238l.179-1.012a2.578,2.578,0,0,1-.3.06c-.417,0-.476-.238-.417-.357l.357-2.083h.655l.179-1.131h-.6L183.5,220h-1.19s-.714,3.929-.714,4.4a.894.894,0,0,0,.952,1.012A1.827,1.827,0,0,0,183.326,225.238Z" transform="translate(-169.16 -219.464)" fill="#fff"/>
        <path id="Path_857" data-name="Path 857" d="M210.4,231.385a1.893,1.893,0,0,0,2.083,2.083,3.09,3.09,0,0,0,1.25-.179l.238-1.131a3.568,3.568,0,0,1-1.25.3c-1.31,0-1.071-.952-1.071-.952h2.44a7.717,7.717,0,0,0,.179-1.071,1.613,1.613,0,0,0-1.726-1.726C211.293,228.587,210.4,229.9,210.4,231.385Zm2.083-1.726c.655,0,.536.774.536.833h-1.31C211.71,230.432,211.829,229.659,212.483,229.659Z" transform="translate(-195.817 -227.516)" fill="#fff"/>
        <path id="Path_858" data-name="Path 858" d="M299.274,218.574l.238-1.31a2.926,2.926,0,0,1-1.012.3c-.833,0-1.19-.655-1.19-1.369,0-1.429.714-2.2,1.548-2.2a1.988,1.988,0,0,1,1.071.357l.179-1.25a4.185,4.185,0,0,0-1.369-.3c-1.369,0-2.738,1.19-2.738,3.452,0,1.488.714,2.5,2.143,2.5A5.342,5.342,0,0,0,299.274,218.574Z" transform="translate(-275.048 -212.8)" fill="#fff"/>
        <path id="Path_859" data-name="Path 859" d="M88.662,227.2a4.216,4.216,0,0,0-1.429.238l-.179,1.012a3.518,3.518,0,0,1,1.31-.238c.417,0,.774.06.774.417,0,.238-.06.3-.06.3h-.536c-1.012,0-2.143.417-2.143,1.786,0,1.071.714,1.31,1.131,1.31a1.789,1.789,0,0,0,1.25-.536l-.06.476h1.071l.476-3.274A1.411,1.411,0,0,0,88.662,227.2Zm.238,2.679c0,.179-.119,1.131-.833,1.131a.465.465,0,0,1-.476-.476c0-.3.179-.714,1.071-.714A.939.939,0,0,0,88.9,229.879Z" transform="translate(-81.043 -226.129)" fill="#fff"/>
        <path id="Path_860" data-name="Path 860" d="M136.569,231.281a1.526,1.526,0,0,0,1.786-1.548c0-1.488-1.429-1.19-1.429-1.786,0-.3.238-.417.655-.417.179,0,.833.06.833.06l.179-1.071a4.521,4.521,0,0,0-1.131-.119c-.893,0-1.786.357-1.786,1.548,0,1.369,1.488,1.25,1.488,1.786,0,.357-.417.417-.714.417a3.893,3.893,0,0,1-1.071-.179l-.179,1.071C135.26,231.162,135.557,231.281,136.569,231.281Z" transform="translate(-126.212 -225.388)" fill="#fff"/>
        <path id="Path_861" data-name="Path 861" d="M430.593,214.4l-.238,1.607a1.651,1.651,0,0,0-1.131-.6c-1.071,0-2.024,1.31-2.024,2.857,0,.952.476,1.964,1.488,1.964a1.589,1.589,0,0,0,1.131-.476l-.06.417h1.19l.893-5.714Zm-.536,3.155c0,.655-.3,1.488-.952,1.488-.417,0-.655-.357-.655-.952,0-.952.417-1.548.952-1.548C429.819,216.543,430.057,216.84,430.057,217.555Z" transform="translate(-396.486 -214.281)" fill="#fff"/>
        <path id="Path_862" data-name="Path 862" d="M15.531,220.114l.714-4.286.119,4.286H17.2l1.548-4.286-.655,4.286h1.25l.952-5.714H18.329l-1.19,3.512-.06-3.512H15.352l-.952,5.714Z" transform="translate(-14.4 -214.281)" fill="#fff"/>
        <path id="Path_863" data-name="Path 863" d="M261.31,233.443c.357-1.964.417-3.571,1.25-3.274a4.672,4.672,0,0,1,.417-1.369h-.238c-.536,0-.952.714-.952.714l.119-.655h-1.131L260,233.5h1.31Z" transform="translate(-241.726 -227.61)" fill="#fff"/>
        <path id="Path_864" data-name="Path 864" d="M348.662,227.2a4.216,4.216,0,0,0-1.429.238l-.179,1.012a3.519,3.519,0,0,1,1.31-.238c.417,0,.774.06.774.417,0,.238-.06.3-.06.3h-.536c-1.012,0-2.143.417-2.143,1.786,0,1.071.714,1.31,1.131,1.31a1.788,1.788,0,0,0,1.25-.536l-.059.476h1.071l.476-3.274A1.39,1.39,0,0,0,348.662,227.2Zm.3,2.679c0,.179-.119,1.131-.833,1.131a.465.465,0,0,1-.476-.476c0-.3.179-.714,1.071-.714C348.9,229.879,348.9,229.879,348.96,229.879Z" transform="translate(-321.698 -226.129)" fill="#fff"/>
        <path id="Path_865" data-name="Path 865" d="M395.71,233.443c.357-1.964.417-3.571,1.25-3.274a4.674,4.674,0,0,1,.417-1.369h-.238c-.536,0-.952.714-.952.714l.119-.655h-1.131L394.4,233.5h1.31Z" transform="translate(-366.126 -227.61)" fill="#fff"/>
      </g>
      <g id="Group_256" data-name="Group 256" transform="translate(1.071 8.333)">
        <path id="Path_866" data-name="Path 866" d="M180,224.4a.894.894,0,0,0,.952,1.012,2.266,2.266,0,0,0,.893-.179l.179-1.012a2.578,2.578,0,0,1-.3.06c-.417,0-.476-.238-.417-.357l.357-2.083h.655l.179-1.131h-.6l.119-.714" transform="translate(-167.679 -219.464)" fill="#dce5e5"/>
        <path id="Path_867" data-name="Path 867" d="M218.4,231.385c0,1.667.536,2.083,1.488,2.083a3.09,3.09,0,0,0,1.25-.179l.238-1.131a3.568,3.568,0,0,1-1.25.3c-1.31,0-1.071-.952-1.071-.952h2.44a7.718,7.718,0,0,0,.179-1.071,1.613,1.613,0,0,0-1.726-1.726C218.7,228.587,218.4,229.9,218.4,231.385Zm1.488-1.726c.655,0,.774.774.774.833h-1.548C219.114,230.432,219.233,229.659,219.888,229.659Z" transform="translate(-203.221 -227.516)" fill="#dce5e5"/>
        <path id="Path_868" data-name="Path 868" d="M306.679,218.574l.238-1.31a2.926,2.926,0,0,1-1.012.3c-.833,0-1.19-.655-1.19-1.369,0-1.429.714-2.2,1.548-2.2a1.988,1.988,0,0,1,1.071.357l.179-1.25a4.185,4.185,0,0,0-1.369-.3c-1.369,0-2.143,1.19-2.143,3.452,0,1.488.119,2.5,1.548,2.5A5.342,5.342,0,0,0,306.679,218.574Z" transform="translate(-282.452 -212.8)" fill="#dce5e5"/>
        <path id="Path_869" data-name="Path 869" d="M87.055,229.99a3.518,3.518,0,0,1,1.31-.238c.417,0,.774.06.774.417,0,.238-.06.3-.06.3h-.536c-1.012,0-2.143.417-2.143,1.786,0,1.071.714,1.31,1.131,1.31a1.789,1.789,0,0,0,1.25-.536l-.06.476h1.071l.476-3.274c0-1.369-1.19-1.429-1.667-1.429m.893,2.56a1.949,1.949,0,0,1-1.429,1.131.465.465,0,0,1-.476-.476c0-.3.179-.714,1.071-.714A4.863,4.863,0,0,0,89.5,231.36Z" transform="translate(-81.043 -227.61)" fill="#dce5e5"/>
        <path id="Path_870" data-name="Path 870" d="M136,231.162a5.038,5.038,0,0,0,1.369.119,1.526,1.526,0,0,0,1.786-1.548c0-1.488-1.429-1.19-1.429-1.786,0-.3.238-.417.655-.417.179,0,.833.06.833.06l.179-1.071a4.522,4.522,0,0,0-1.131-.119c-.893,0-1.19.357-1.19,1.548,0,1.369.893,1.25.893,1.786,0,.357-.417.417-.714.417" transform="translate(-126.952 -225.388)" fill="#dce5e5"/>
        <path id="Path_871" data-name="Path 871" d="M437.706,216.748a1.651,1.651,0,0,0-1.131-.6c-1.071,0-1.429,1.31-1.429,2.857,0,.952-.119,1.964.893,1.964a1.589,1.589,0,0,0,1.131-.476l-.06.417h1.19l.893-5.714m-1.548,3.1c0,.655-.536,1.488-1.191,1.488-.417,0-.655-.357-.655-.952,0-.952.417-1.548.952-1.548A.91.91,0,0,1,437.646,218.3Z" transform="translate(-403.837 -215.021)" fill="#dce5e5"/>
        <path id="Path_872" data-name="Path 872" d="M15.531,220.114l.714-4.286.119,4.286H17.2l1.548-4.286-.655,4.286h1.25l.952-5.714H18.8l-1.667,3.512-.06-3.512h-.655L14.4,220.114Z" transform="translate(-14.4 -214.281)" fill="#dce5e5"/>
        <path id="Path_873" data-name="Path 873" d="M260.8,233.443h1.25c.357-1.964.417-3.571,1.25-3.274a4.673,4.673,0,0,1,.417-1.369h-.238c-.536,0-.952.714-.952.714l.119-.655" transform="translate(-242.467 -227.61)" fill="#dce5e5"/>
        <path id="Path_874" data-name="Path 874" d="M347.055,229.99a3.518,3.518,0,0,1,1.31-.238c.417,0,.774.06.774.417,0,.238-.06.3-.06.3h-.536c-1.012,0-2.143.417-2.143,1.786,0,1.071.714,1.31,1.131,1.31a1.788,1.788,0,0,0,1.25-.536l-.06.476h1.071l.476-3.274c0-1.369-1.19-1.429-1.667-1.429m.893,2.56a1.949,1.949,0,0,1-1.429,1.131.465.465,0,0,1-.476-.476c0-.3.179-.714,1.071-.714A5.237,5.237,0,0,0,349.5,231.36Z" transform="translate(-321.698 -227.61)" fill="#dce5e5"/>
        <path id="Path_875" data-name="Path 875" d="M395.2,233.443h1.25c.357-1.964.417-3.571,1.25-3.274a4.672,4.672,0,0,1,.417-1.369h-.238c-.536,0-.952.714-.952.714l.119-.655" transform="translate(-366.867 -227.61)" fill="#dce5e5"/>
      </g>
    </g>
  </g>
</svg>
