<svg xmlns="http://www.w3.org/2000/svg" width="60" height="50" viewBox="0 0 60 50">
  <g id="paypal" transform="translate(-1243 -9104)">
    <rect id="Rectangle_60" data-name="Rectangle 60" width="60" height="50" rx="5" transform="translate(1243 9104)" fill="#fff"/>
    <g id="Icon_paypal" data-name="Icon / paypal" transform="translate(1248 9122)">
      <path id="Path_876" data-name="Path 876" d="M351.675,221.2H348.8a.561.561,0,0,0-.422.338l-1.182,7.43a.224.224,0,0,0,.253.253h1.52a.224.224,0,0,0,.253-.253l.338-2.111a.386.386,0,0,1,.422-.338h.929a2.942,2.942,0,0,0,3.293-2.786,2.213,2.213,0,0,0-.338-1.858,3.406,3.406,0,0,0-2.2-.675m.338,2.786c-.169,1.013-.929,1.013-1.689,1.013h-.507l.338-1.942c0-.084.084-.169.253-.169h.169c.507,0,1.013,0,1.266.338.169.084.169.338.169.76" transform="translate(-313.749 -217.654)" fill="#139ad6"/>
      <g id="Group_257" data-name="Group 257" transform="translate(12.766 3.546)">
        <path id="Path_877" data-name="Path 877" d="M155.675,221.2H152.8a.561.561,0,0,0-.422.338l-1.182,7.43a.224.224,0,0,0,.253.253H152.8a.561.561,0,0,0,.422-.338l.338-2.026a.386.386,0,0,1,.422-.338h.929a2.942,2.942,0,0,0,3.293-2.786,2.213,2.213,0,0,0-.338-1.858,3.246,3.246,0,0,0-2.2-.675m.338,2.786c-.169,1.013-.929,1.013-1.689,1.013H153.9l.338-1.942c0-.084.084-.169.253-.169h.169c.507,0,1.013,0,1.266.338a.9.9,0,0,1,.084.76" transform="translate(-151.2 -221.2)" fill="#263b80"/>
        <path id="Path_878" data-name="Path 878" d="M220.453,245.369H219.1c-.084,0-.253.085-.253.169l-.084.422-.084-.169a1.986,1.986,0,0,0-1.6-.591,3.244,3.244,0,0,0-3.124,2.786,2.517,2.517,0,0,0,.507,2.111,2.128,2.128,0,0,0,1.773.675,2.7,2.7,0,0,0,1.942-.76l-.084.422a.224.224,0,0,0,.253.253h1.266a.561.561,0,0,0,.422-.338l.76-4.728c-.084-.085-.253-.253-.338-.253m-1.942,2.7a1.633,1.633,0,0,1-1.6,1.351,1.35,1.35,0,0,1-.929-.338,1.8,1.8,0,0,1-.253-1.013,1.506,1.506,0,0,1,2.449-1.013,1.474,1.474,0,0,1,.338,1.013" transform="translate(-207.282 -242.667)" fill="#263b80"/>
      </g>
      <path id="Path_879" data-name="Path 879" d="M415.653,245.369H414.3c-.085,0-.253.085-.253.169l-.084.422-.084-.169a1.986,1.986,0,0,0-1.6-.591,3.244,3.244,0,0,0-3.124,2.786,2.517,2.517,0,0,0,.507,2.111,2.128,2.128,0,0,0,1.773.675,2.7,2.7,0,0,0,1.942-.76l-.085.422a.224.224,0,0,0,.253.253h1.266a.561.561,0,0,0,.422-.338l.76-4.728c-.084-.085-.169-.253-.338-.253m-1.942,2.7a1.633,1.633,0,0,1-1.6,1.351,1.35,1.35,0,0,1-.929-.338,1.8,1.8,0,0,1-.253-1.013,1.506,1.506,0,0,1,2.448-1.013.969.969,0,0,1,.338,1.013" transform="translate(-369.115 -239.121)" fill="#139ad6"/>
      <path id="Path_880" data-name="Path 880" d="M290.5,246.8h-1.435a.439.439,0,0,0-.338.169l-1.857,2.871-.844-2.7a.39.39,0,0,0-.422-.253h-1.351c-.169,0-.253.169-.253.338l1.52,4.475-1.435,2.026c-.084.169,0,.422.169.422H285.6a.439.439,0,0,0,.338-.169l4.644-6.67c.253-.253.084-.507-.084-.507" transform="translate(-257.219 -240.552)" fill="#263b80"/>
      <path id="Path_881" data-name="Path 881" d="M476.382,221.888l-1.182,7.6a.224.224,0,0,0,.253.253h1.182a.561.561,0,0,0,.422-.338l1.182-7.43a.224.224,0,0,0-.253-.253h-1.351c-.084-.084-.169,0-.253.169" transform="translate(-428.24 -218.089)" fill="#139ad6"/>
      <path id="Path_882" data-name="Path 882" d="M9.71,188.613A4.171,4.171,0,0,0,6.5,187.6H2.28a.724.724,0,0,0-.591.507L0,199.167a.386.386,0,0,0,.338.422H2.955l.675-4.137v.169a.724.724,0,0,1,.591-.507H5.488c2.448,0,4.306-1.013,4.9-3.8v-.253h0a2.949,2.949,0,0,0-.675-2.449" transform="translate(0 -187.6)" fill="#263b80"/>
      <path id="Path_883" data-name="Path 883" d="M33.2,220.4h0v.253c-.591,2.871-2.448,3.8-4.9,3.8H27.035a.724.724,0,0,0-.591.507l-.844,5.15a.309.309,0,0,0,.338.338h2.2a.473.473,0,0,0,.507-.422v-.084l.422-2.617v-.169a.473.473,0,0,1,.507-.422h.338c2.111,0,3.8-.844,4.222-3.377a3.1,3.1,0,0,0-.422-2.533.865.865,0,0,0-.507-.422" transform="translate(-22.898 -216.938)" fill="#139ad6"/>
      <path id="Path_884" data-name="Path 884" d="M40.479,215.853c-.084,0-.169-.084-.253-.084a.31.31,0,0,1-.253-.084,4.46,4.46,0,0,0-1.1-.084H35.582a.31.31,0,0,0-.253.084.464.464,0,0,0-.253.422L34.4,220.5v.169a.724.724,0,0,1,.591-.507h1.266c2.449,0,4.306-1.013,4.9-3.8a.31.31,0,0,1,.084-.253c-.169-.084-.253-.169-.422-.169-.253-.084-.253-.084-.338-.084" transform="translate(-30.769 -212.645)" fill="#232c65"/>
    </g>
  </g>
</svg>
