<svg id="quote" xmlns="http://www.w3.org/2000/svg" width="12" height="9.6" viewBox="0 0 12 9.6">
  <path id="Path_828" data-name="Path 828" d="M259.3.332h-1.8a1.5,1.5,0,0,0-1.5,1.5v1.8a1.5,1.5,0,0,0,1.5,1.5h1.8a1.494,1.494,0,0,0,.3-.031V6.332a2.4,2.4,0,0,1-2.4,2.4h-.6a.6.6,0,0,0,0,1.2h.6a3.6,3.6,0,0,0,3.6-3.6v-4.5a1.5,1.5,0,0,0-1.5-1.5Zm0,0" transform="translate(-248.8 -0.332)" fill="#397797"/>
  <path id="Path_829" data-name="Path 829" d="M3.3.332H1.5A1.5,1.5,0,0,0,0,1.832v1.8a1.5,1.5,0,0,0,1.5,1.5H3.3A1.5,1.5,0,0,0,3.6,5.1V6.332a2.4,2.4,0,0,1-2.4,2.4H.6a.6.6,0,0,0,0,1.2h.6a3.6,3.6,0,0,0,3.6-3.6v-4.5A1.5,1.5,0,0,0,3.3.332Zm0,0" transform="translate(0 -0.332)" fill="#397797"/>
</svg>
