<svg id="quote" xmlns="http://www.w3.org/2000/svg" width="12" height="9.6" viewBox="0 0 12 9.6">
  <path id="Path_828" data-name="Path 828" d="M257.5,9.932h1.8a1.5,1.5,0,0,0,1.5-1.5v-1.8a1.5,1.5,0,0,0-1.5-1.5h-1.8a1.493,1.493,0,0,0-.3.031V3.932a2.4,2.4,0,0,1,2.4-2.4h.6a.6.6,0,0,0,0-1.2h-.6a3.6,3.6,0,0,0-3.6,3.6v4.5a1.5,1.5,0,0,0,1.5,1.5Zm0,0" transform="translate(-256 -0.332)" fill="#397797"/>
  <path id="Path_829" data-name="Path 829" d="M1.5,9.932H3.3a1.5,1.5,0,0,0,1.5-1.5v-1.8a1.5,1.5,0,0,0-1.5-1.5H1.5a1.5,1.5,0,0,0-.3.031V3.932a2.4,2.4,0,0,1,2.4-2.4h.6a.6.6,0,0,0,0-1.2H3.6A3.6,3.6,0,0,0,0,3.932v4.5a1.5,1.5,0,0,0,1.5,1.5Zm0,0" transform="translate(7.2 -0.332)" fill="#397797"/>
</svg>
