<svg xmlns="http://www.w3.org/2000/svg" width="110" height="110" viewBox="0 0 110 110"><g fill="none" stroke="#ffc840" stroke-width="1"><circle cx="55" cy="55" r="55" stroke="none"/><circle cx="55" cy="55" r="54.5" fill="none"/></g><g transform="translate(19 20)"><path d="M191.321,34.6a24.6,24.6,0,1,1-24.6-24.6A24.6,24.6,0,0,1,191.321,34.6Zm0,0" transform="translate(-122.688 -8.633)" fill="#ffc840"/><path d="M227.668,74.541A18.041,18.041,0,1,1,209.627,56.5,18.041,18.041,0,0,1,227.668,74.541Zm0,0" transform="translate(-165.393 -48.776)" fill="#fff"/><path d="M33.371,338.987,19.566,352.792a5.6,5.6,0,0,1-7.924-7.924l13.805-13.805Zm0,0" transform="translate(-8.634 -285.801)" fill="#397797"/><path d="M134.281,305.994l5.76-5.76,4.833,4.833-5.76,5.76Zm0,0" transform="translate(-115.922 -259.187)" fill="#eff3f3"/><path d="M200.994,85.316a19.408,19.408,0,1,0-19.408-19.408A19.43,19.43,0,0,0,200.994,85.316Zm0-36.082A16.674,16.674,0,1,1,184.32,65.908,16.693,16.693,0,0,1,200.994,49.234Zm0,0" transform="translate(-156.76 -40.143)" fill="#397797"/><path d="M44.032,51.938A25.994,25.994,0,1,0,22.608,40.627L18.36,44.875l-.578-.578a1.367,1.367,0,0,0-1.934,0L2.042,58.1A6.97,6.97,0,1,0,11.9,67.959L25.705,54.154a1.369,1.369,0,0,0,0-1.934l-.579-.578,4.248-4.248a25.82,25.82,0,0,0,14.658,4.544Zm0-49.2A23.234,23.234,0,1,1,20.8,25.969,23.26,23.26,0,0,1,44.032,2.735ZM9.966,66.026a4.236,4.236,0,0,1-5.991-5.991L16.814,47.2l.578.578h0L22.8,53.187ZM23.193,49.708l-2.9-2.9,3.993-3.993a26.26,26.26,0,0,0,2.9,2.9Zm0,0" transform="translate(0 -0.001)" fill="#397797"/><path d="M314.906,252.891a1.368,1.368,0,1,0,.967.4A1.377,1.377,0,0,0,314.906,252.891Zm0,0" transform="translate(-270.672 -218.316)" fill="#ffc840"/><path d="M280.676,115.359a1.367,1.367,0,0,0,1.367-1.367,3.314,3.314,0,1,1,4.927,2.895,5.728,5.728,0,0,0-2.981,4.961V123.8a1.367,1.367,0,1,0,2.734,0v-1.951a2.991,2.991,0,0,1,1.581-2.575,6.048,6.048,0,1,0-9-5.281,1.367,1.367,0,0,0,1.367,1.367Zm0,0" transform="translate(-241.122 -93.187)" fill="#ffc840"/></g></svg>