<svg xmlns="http://www.w3.org/2000/svg" width="110" height="110" viewBox="0 0 110 110">
  <g id="setting" transform="translate(-0.5)">
    <g id="Search-Ellipse" transform="translate(0.5)" fill="none" stroke="#ffc840" stroke-width="1">
      <circle cx="55" cy="55" r="55" stroke="none"/>
      <circle cx="55" cy="55" r="54.5" fill="none"/>
    </g>
    <g id="settings" transform="translate(20.5 20)">
      <path id="Path_1091" data-name="Path 1091" d="M67.792,48.647A26.863,26.863,0,0,1,65,55.367l4.877,6.265L61.632,69.88,55.367,65a26.863,26.863,0,0,1-6.72,2.788l-.98,7.875H36l-.98-7.875A26.863,26.863,0,0,1,28.3,65L22.035,69.88l-8.248-8.248,4.877-6.265a26.863,26.863,0,0,1-2.788-6.72L8,47.667V36l7.875-.98a26.863,26.863,0,0,1,2.788-6.72l-4.877-6.265,8.248-8.248L28.3,18.664a26.863,26.863,0,0,1,6.72-2.788L36,8H47.667l.98,7.875a26.863,26.863,0,0,1,6.72,2.788l6.265-4.877,8.248,8.248L65,28.3a26.863,26.863,0,0,1,2.788,6.72l7.875.98V47.667Zm0,0" transform="translate(-6.834 -6.833)" fill="#fff"/>
      <path id="Path_1092" data-name="Path 1092" d="M149.333,130.667A18.667,18.667,0,1,1,130.667,112,18.667,18.667,0,0,1,149.333,130.667Zm0,0" transform="translate(-95.667 -95.666)" fill="#ffc840"/>
      <path id="Path_1093" data-name="Path 1093" d="M268.667,266.333A2.333,2.333,0,1,1,266.333,264,2.333,2.333,0,0,1,268.667,266.333Zm0,0" transform="translate(-225.5 -225.5)" fill="#fff"/>
      <path id="Path_1094" data-name="Path 1094" d="M188.667,186.333A2.333,2.333,0,1,1,186.333,184,2.333,2.333,0,0,1,188.667,186.333Zm0,0" transform="translate(-157.167 -157.166)" fill="#fff"/>
      <path id="Path_1095" data-name="Path 1095" d="M68.978,28.01l-7.1-.888a27.9,27.9,0,0,0-2.3-5.547l4.4-5.657a1.167,1.167,0,0,0-.1-1.542L55.624,6.127a1.167,1.167,0,0,0-1.542-.1l-5.657,4.4a27.894,27.894,0,0,0-5.547-2.3l-.888-7.1A1.166,1.166,0,0,0,40.833,0H29.166a1.166,1.166,0,0,0-1.158,1.022l-.888,7.1a27.9,27.9,0,0,0-5.547,2.3l-5.657-4.4a1.167,1.167,0,0,0-1.542.1L6.126,14.376a1.167,1.167,0,0,0-.1,1.542l4.4,5.657a27.894,27.894,0,0,0-2.3,5.547l-7.1.888A1.166,1.166,0,0,0,0,29.167V40.834a1.166,1.166,0,0,0,1.022,1.158l7.1.888a27.9,27.9,0,0,0,2.3,5.547l-4.4,5.657a1.167,1.167,0,0,0,.1,1.542l8.249,8.249a1.167,1.167,0,0,0,1.542.1l5.657-4.4a27.894,27.894,0,0,0,5.547,2.3l.888,7.1A1.166,1.166,0,0,0,29.166,70H40.833a1.166,1.166,0,0,0,1.158-1.022l.888-7.1a27.9,27.9,0,0,0,5.547-2.3l5.657,4.4a1.167,1.167,0,0,0,1.542-.1l8.249-8.249a1.167,1.167,0,0,0,.1-1.542l-4.4-5.657a27.9,27.9,0,0,0,2.3-5.547l7.1-.888A1.166,1.166,0,0,0,70,40.834V29.167a1.166,1.166,0,0,0-1.022-1.158ZM67.666,39.8l-6.854.857a1.168,1.168,0,0,0-.985.861,25.514,25.514,0,0,1-2.661,6.417,1.167,1.167,0,0,0,.085,1.306L61.5,54.7,54.7,61.5,49.243,57.25a1.167,1.167,0,0,0-1.306-.083,25.564,25.564,0,0,1-6.417,2.664,1.167,1.167,0,0,0-.861.984L39.8,67.667H30.2l-.857-6.854a1.168,1.168,0,0,0-.861-.985,25.535,25.535,0,0,1-6.417-2.661,1.167,1.167,0,0,0-1.306.085L15.3,61.5,8.5,54.7l4.246-5.459a1.167,1.167,0,0,0,.083-1.306,25.513,25.513,0,0,1-2.664-6.417,1.167,1.167,0,0,0-.984-.861L2.333,39.8V30.2l6.854-.857a1.168,1.168,0,0,0,.985-.861,25.535,25.535,0,0,1,2.661-6.417,1.167,1.167,0,0,0-.085-1.306L8.5,15.3,15.3,8.505l5.459,4.246a1.167,1.167,0,0,0,1.306.083,25.564,25.564,0,0,1,6.417-2.664,1.167,1.167,0,0,0,.861-.984L30.2,2.334H39.8l.857,6.854a1.168,1.168,0,0,0,.861.985,25.535,25.535,0,0,1,6.417,2.661,1.167,1.167,0,0,0,1.306-.085L54.7,8.505,61.495,15.3l-4.246,5.459a1.167,1.167,0,0,0-.083,1.306,25.564,25.564,0,0,1,2.664,6.417,1.167,1.167,0,0,0,.984.861l6.852.857Zm0,0" fill="#397797"/>
      <path id="Path_1096" data-name="Path 1096" d="M232,48h2.333v2.333H232Zm0,0" transform="translate(-198.167 -41)" fill="#397797"/>
      <path id="Path_1097" data-name="Path 1097" d="M98.582,100.228l1.65-1.65,1.65,1.65-1.65,1.65Zm0,0" transform="translate(-84.206 -84.202)" fill="#397797"/>
      <path id="Path_1098" data-name="Path 1098" d="M48,232h2.333v2.333H48Zm0,0" transform="translate(-41 -198.166)" fill="#397797"/>
      <path id="Path_1099" data-name="Path 1099" d="M98.582,360.446l1.65-1.65,1.65,1.65-1.65,1.65Zm0,0" transform="translate(-84.206 -306.472)" fill="#397797"/>
      <path id="Path_1100" data-name="Path 1100" d="M232,416h2.333v2.333H232Zm0,0" transform="translate(-198.167 -355.333)" fill="#397797"/>
      <path id="Path_1101" data-name="Path 1101" d="M358.8,360.435l1.65-1.65,1.65,1.65-1.65,1.65Zm0,0" transform="translate(-306.473 -306.462)" fill="#397797"/>
      <path id="Path_1102" data-name="Path 1102" d="M416,232h2.333v2.333H416Zm0,0" transform="translate(-355.334 -198.166)" fill="#397797"/>
      <path id="Path_1103" data-name="Path 1103" d="M358.8,100.236l1.65-1.65,1.65,1.65-1.65,1.65Zm0,0" transform="translate(-306.473 -84.208)" fill="#397797"/>
      <path id="Path_1104" data-name="Path 1104" d="M186.344,200.34l14-14,1.65,1.65-14,14Zm0,0" transform="translate(-159.169 -159.165)" fill="#397797"/>
      <path id="Path_1105" data-name="Path 1105" d="M259.5,256a3.5,3.5,0,1,0,3.5,3.5A3.5,3.5,0,0,0,259.5,256Zm0,4.667a1.167,1.167,0,1,1,1.167-1.167A1.167,1.167,0,0,1,259.5,260.667Zm0,0" transform="translate(-218.667 -218.666)" fill="#397797"/>
      <path id="Path_1106" data-name="Path 1106" d="M183,179.5a3.5,3.5,0,1,0-3.5,3.5A3.5,3.5,0,0,0,183,179.5Zm-4.667,0a1.167,1.167,0,1,1,1.167,1.167A1.167,1.167,0,0,1,178.333,179.5Zm0,0" transform="translate(-150.334 -150.333)" fill="#397797"/>
      <path id="Path_1107" data-name="Path 1107" d="M123.833,104a19.833,19.833,0,1,0,19.833,19.833A19.834,19.834,0,0,0,123.833,104Zm0,37.333a17.5,17.5,0,1,1,17.5-17.5A17.5,17.5,0,0,1,123.833,141.333Zm0,0" transform="translate(-88.834 -88.833)" fill="#397797"/>
    </g>
  </g>
</svg>
