<svg xmlns="http://www.w3.org/2000/svg" width="299.59" height="286.322" viewBox="0 0 299.59 286.322">
  <g id="flat-design" transform="translate(-160.225 -184.22)">
    <g id="OBJECTS" transform="translate(160.225 184.22)">
      <g id="Group_715" data-name="Group 715" transform="translate(2.883)">
        <g id="Group_705" data-name="Group 705" transform="translate(2.383)">
          <circle id="Ellipse_52" data-name="Ellipse 52" cx="101.231" cy="101.231" r="101.231" transform="translate(0 143.161) rotate(-45)" fill="#397797"/>
          <path id="Path_979" data-name="Path 979" d="M311.5,210.37v33.96a118.933,118.933,0,0,1-12.512,14.624V210.37h0v-.163c0-.325-6.175-5.362-10.887-9.1V199l5.687-1.462a11.481,11.481,0,0,1,6.987.487,17.325,17.325,0,0,0,3.087,1.137v4.387c4.55,3.9,7.475,6.5,7.637,6.825Z" transform="translate(-85.582 -42.876)" fill="#4b9ab2"/>
        </g>
        <g id="Group_714" data-name="Group 714" transform="translate(0 13.454)">
          <g id="Group_706" data-name="Group 706" transform="translate(1.626)">
            <path id="Path_980" data-name="Path 980" d="M163,110.5l29.736,69.546,21.611-14.787,12.674,18.2,2.275-30.711,26.161-16.086Z" transform="translate(-163 -110.5)" fill="#ffc840"/>
            <path id="Path_981" data-name="Path 981" d="M209.848,155.385l-26.486,18.036,21.611-14.787,12.674,18.2,2.275-30.711L178,121.1Z" transform="translate(-153.627 -103.876)" fill="#ff9433"/>
            <path id="Path_982" data-name="Path 982" d="M219.272,153.6,178,121.1l41.922,25.023Z" transform="translate(-153.627 -103.876)" fill="#f73"/>
          </g>
          <g id="Group_707" data-name="Group 707" transform="translate(6.1 70.183)">
            <path id="Path_983" data-name="Path 983" d="M203.012,162.55a35.93,35.93,0,0,0-.812-4.062l2.112-.487c.325,1.3.65,2.762.975,4.225Z" transform="translate(-162.39 -158)" fill="#397797"/>
            <path id="Path_984" data-name="Path 984" d="M193.786,204.9a16.842,16.842,0,0,1-8.449-2.762l1.137-1.787a14.6,14.6,0,0,0,7.475,2.437Zm8.774-1.787-.975-1.95a22.154,22.154,0,0,0,6.337-5.037l1.625,1.462A21.337,21.337,0,0,1,202.561,203.11Zm-23.074-7.8a18.13,18.13,0,0,1-1.787-7.637v-1.137l2.112.162v.812a13.92,13.92,0,0,0,1.625,6.662Zm81.407-.487v-2.112c2.762,0,5.525-.162,8.449-.325l.162,2.112A77.749,77.749,0,0,1,260.895,194.823Zm-8.449-.162-1.3-.162a47.464,47.464,0,0,1-7.15-.975l.325-2.112c2.112.325,4.387.65,6.987.812l1.3.163Zm25.511-.975-.325-2.112c2.762-.325,5.525-.812,8.287-1.3l.325,2.112C283.481,192.873,280.718,193.2,277.956,193.686Zm-42.41-2.112a37.687,37.687,0,0,1-6.825-3.087,3.4,3.4,0,0,1-.975-.65l1.137-1.787.975.487a39.477,39.477,0,0,0,6.5,2.925Zm-21.124-.975-1.787-.975a44.14,44.14,0,0,0,3.412-7.475l1.95.65A33.92,33.92,0,0,1,214.423,190.6Zm80.27-.162-.487-2.112c2.6-.65,5.362-1.3,8.124-2.112l.65,1.95A78.6,78.6,0,0,1,294.693,190.436Zm16.411-4.712-.65-1.95c2.6-.812,5.362-1.787,7.962-2.762l.65,1.95C316.466,183.936,313.866,184.911,311.1,185.724ZM220.6,182.961a42.146,42.146,0,0,0-6.337-4.062l-.65-.325.975-1.95c.325.163.487.325.812.325a75.334,75.334,0,0,1,6.5,4.225Zm-37.86-3.087-1.462-1.462a17.769,17.769,0,0,1,7.8-4.225l.65,1.95C186.637,177.112,184.2,178.249,182.737,179.874Zm23.236-4.225a37.328,37.328,0,0,0-7.312-.812h-.812v-2.112a37.778,37.778,0,0,1,8.612.812Zm14.3-1.137-2.112-.325a47.728,47.728,0,0,0,.812-8.287h2.112A53.132,53.132,0,0,1,220.272,174.512Z" transform="translate(-177.7 -153.063)" fill="#397797"/>
            <path id="Path_985" data-name="Path 985" d="M270.012,175.912l-.812-1.95,3.9-1.462.812,1.95Z" transform="translate(-120.522 -148.939)" fill="#397797"/>
          </g>
          <path id="Path_986" data-name="Path 986" d="M311.319,214.654a2.12,2.12,0,0,1-2.112-1.95,2.149,2.149,0,0,1,1.95-2.275,50.811,50.811,0,0,0,32.985-17.061,2.071,2.071,0,1,1,3.087,2.762,54.309,54.309,0,0,1-35.748,18.524Z" transform="translate(-70.021 -59.151)" fill="#397797"/>
          <g id="Group_710" data-name="Group 710" transform="translate(68.734 59.146)">
            <path id="Path_987" data-name="Path 987" d="M351.128,227.984l-73.283,43.385L204.4,228.146v-.162c0-.325,4.062-3.737,10.237-8.612l.162-.162C235.111,202.8,277.683,169,277.683,169s42.735,33.635,62.883,50.209c6.337,4.875,10.562,8.45,10.562,8.775Z" transform="translate(-204.238 -133.09)" fill="#7a4c08"/>
            <g id="Group_708" data-name="Group 708" transform="translate(12.187)">
              <path id="Path_988" data-name="Path 988" d="M303.282,146.9H224.149A12.344,12.344,0,0,0,211.8,159.249V279a12.344,12.344,0,0,0,12.349,12.349H323.43A12.344,12.344,0,0,0,335.78,279V179.235Z" transform="translate(-211.8 -146.9)" fill="#fff"/>
              <path id="Path_989" data-name="Path 989" d="M268.1,166.886a12.344,12.344,0,0,0,12.349,12.349h19.986L268.1,146.9Z" transform="translate(-176.618 -146.9)" fill="#e6e8e8"/>
              <path id="Path_990" data-name="Path 990" d="M255.148,159.3H227.687a4.369,4.369,0,0,0-4.387,4.387v27.3a4.369,4.369,0,0,0,4.387,4.387h27.3a4.369,4.369,0,0,0,4.387-4.387v-27.3A4.234,4.234,0,0,0,255.148,159.3Z" transform="translate(-204.614 -139.151)" fill="#4b9ab2"/>
              <path id="Path_991" data-name="Path 991" d="M292.521,187.7H226.875a3.606,3.606,0,0,0-3.575,3.575h0a3.606,3.606,0,0,0,3.575,3.575h65.646a3.607,3.607,0,0,0,3.575-3.575h0A3.607,3.607,0,0,0,292.521,187.7Z" transform="translate(-204.614 -121.404)" fill="#d9dbdb"/>
              <path id="Path_992" data-name="Path 992" d="M292.521,198.5H226.875a3.606,3.606,0,0,0-3.575,3.575h0a3.606,3.606,0,0,0,3.575,3.575h65.646a3.607,3.607,0,0,0,3.575-3.575h0A3.607,3.607,0,0,0,292.521,198.5Z" transform="translate(-204.614 -114.655)" fill="#d9dbdb"/>
              <path id="Path_993" data-name="Path 993" d="M262.722,209H226.975a3.607,3.607,0,0,0-3.575,3.575h0a3.607,3.607,0,0,0,3.575,3.575h35.748a3.607,3.607,0,0,0,3.575-3.575h0A3.719,3.719,0,0,0,262.722,209Z" transform="translate(-204.551 -108.094)" fill="#d9dbdb"/>
            </g>
            <g id="Group_709" data-name="Group 709" transform="translate(0 94.894)">
              <path id="Path_994" data-name="Path 994" d="M351.191,205.3v70.358a9.016,9.016,0,0,1-8.937,8.937H213.237a9.016,9.016,0,0,1-8.937-8.937V205.3l73.445,43.222Z" transform="translate(-204.3 -205.3)" fill="#ffc840"/>
              <path id="Path_995" data-name="Path 995" d="M347.816,270.585,300.531,223.3l-23.724,13.974L253.085,223.3,205.8,270.585a8.581,8.581,0,0,0,6.5,2.762H341.316A8.047,8.047,0,0,0,347.816,270.585Z" transform="translate(-203.363 -194.052)" fill="#ff9433"/>
            </g>
          </g>
          <g id="Group_713" data-name="Group 713" transform="translate(190.96 57.135)">
            <g id="Group_712" data-name="Group 712">
              <path id="Path_996" data-name="Path 996" d="M319.134,145.886a44.242,44.242,0,0,0-39.485,40.622,43.423,43.423,0,0,0,7.8,28.273,10.453,10.453,0,0,1,.975,10.237l-3.412,8.449,14.3-3.737a10.39,10.39,0,0,1,6.987.487,42.909,42.909,0,0,0,21.936,3.412,43.99,43.99,0,0,0,39.485-39.485A44.433,44.433,0,0,0,319.134,145.886Z" transform="translate(-279.521 -145.662)" fill="#4b9ab2"/>
              <g id="Group_711" data-name="Group 711" transform="translate(21.09 25.572)">
                <path id="Path_997" data-name="Path 997" d="M316.548,201.207l2.437-2.437s-1.95-4.55,6.175-12.187c4.875-4.55,5.85-8.937,5.525-12.512a12.761,12.761,0,0,0-11.049-11.049c-3.575-.325-7.962.65-12.512,5.525-7.637,8.124-12.187,6.175-12.187,6.175l-2.437,2.437Z" transform="translate(-292.5 -160.422)" fill="#fff"/>
                <path id="Path_998" data-name="Path 998" d="M296.292,177.4a6.662,6.662,0,0,0,.65,8.612,6.489,6.489,0,0,0,8.612.65Z" transform="translate(-290.93 -151.402)" fill="#fff"/>
                <path id="Path_999" data-name="Path 999" d="M319.375,166.925l-1.462,1.462a14.05,14.05,0,0,0-4.712-4.55l1.462-1.462a3.334,3.334,0,0,1,4.712,0A3.14,3.14,0,0,1,319.375,166.925Z" transform="translate(-279.565 -161.4)" fill="#fff"/>
              </g>
            </g>
            <path id="Path_1000" data-name="Path 1000" d="M320.9,145.705a38.166,38.166,0,1,1-39,62.4,46.528,46.528,0,0,0,3.9,6.825,10.453,10.453,0,0,1,.975,10.237l-3.412,8.449,14.3-3.737a10.391,10.391,0,0,1,6.987.487,42.909,42.909,0,0,0,21.936,3.412,44.156,44.156,0,0,0-5.687-88.069Z" transform="translate(-278.034 -145.644)" fill="#397797"/>
          </g>
          <path id="Path_1001" data-name="Path 1001" d="M166.225,123.71l9.587,22.1a2.2,2.2,0,0,1-1.137,2.925l-.325.162a2.2,2.2,0,0,1-2.925-1.137L162.163,125.5a2.28,2.28,0,0,1,1.3-2.925h0A2.076,2.076,0,0,1,166.225,123.71Z" transform="translate(-161.999 -103.074)" fill="#ffc840"/>
        </g>
      </g>
      <g id="Group_716" data-name="Group 716" transform="translate(0 6.507)">
        <path id="Path_1002" data-name="Path 1002" d="M190.55,218.9a7.15,7.15,0,1,0,7.15,7.15A7.213,7.213,0,0,0,190.55,218.9Zm0,9.912a2.925,2.925,0,1,1,2.925-2.925A3.142,3.142,0,0,1,190.55,228.812Z" transform="translate(-145.743 -35.815)" fill="#397797"/>
        <path id="Path_1003" data-name="Path 1003" d="M307.25,236.5a7.15,7.15,0,1,0,7.15,7.15A7.213,7.213,0,0,0,307.25,236.5Zm0,9.912a2.925,2.925,0,1,1,2.925-2.925A2.913,2.913,0,0,1,307.25,246.412Z" transform="translate(-72.818 -24.817)" fill="#397797"/>
        <path id="Path_1004" data-name="Path 1004" d="M342.262,168.8a5.362,5.362,0,1,0,5.362,5.362A5.41,5.41,0,0,0,342.262,168.8Zm0,7.637a2.275,2.275,0,1,1,2.275-2.275A2.442,2.442,0,0,1,342.262,176.437Z" transform="translate(-49.821 -67.122)" fill="#397797"/>
        <path id="Path_1005" data-name="Path 1005" d="M283.587,115.5a5.687,5.687,0,1,0,5.687,5.687A5.552,5.552,0,0,0,283.587,115.5Zm0,7.962a2.275,2.275,0,1,1,2.275-2.275A2.132,2.132,0,0,1,283.587,123.462Z" transform="translate(-86.69 -100.429)" fill="#397797"/>
        <path id="Path_1006" data-name="Path 1006" d="M170.912,197.7a6.012,6.012,0,1,0,6.012,6.012A5.9,5.9,0,0,0,170.912,197.7Z" transform="translate(-157.304 -49.063)" fill="#397797"/>
        <path id="Path_1007" data-name="Path 1007" d="M319.087,209.9a4.387,4.387,0,1,0,4.387,4.387A4.369,4.369,0,0,0,319.087,209.9Z" transform="translate(-63.694 -41.439)" fill="#397797"/>
        <path id="Path_1008" data-name="Path 1008" d="M230.537,116.6a6.345,6.345,0,0,0-6.337,6.337,6.337,6.337,0,1,0,6.337-6.337Z" transform="translate(-120.247 -99.742)" fill="#397797"/>
        <path id="Path_1009" data-name="Path 1009" d="M251.012,259.4a4.712,4.712,0,1,0,4.712,4.712A4.823,4.823,0,0,0,251.012,259.4Z" transform="translate(-106.437 -10.507)" fill="#397797"/>
        <path id="Path_1010" data-name="Path 1010" d="M306.925,131.8a5.525,5.525,0,1,0,5.525,5.525A5.693,5.693,0,0,0,306.925,131.8Z" transform="translate(-72.005 -90.243)" fill="#397797"/>
        <circle id="Ellipse_53" data-name="Ellipse 53" cx="3.087" cy="3.087" r="3.087" transform="translate(37.819 84.129)" fill="#397797"/>
        <path id="Path_1011" data-name="Path 1011" d="M343.362,152a5.362,5.362,0,1,0,5.362,5.362A5.41,5.41,0,0,0,343.362,152Z" transform="translate(-49.134 -77.62)" fill="#397797"/>
        <circle id="Ellipse_54" data-name="Ellipse 54" cx="3.412" cy="3.412" r="3.412" transform="translate(7.271 102.49)" fill="#397797"/>
        <path id="Path_1012" data-name="Path 1012" d="M257.771,111.709l2.112-2.112a1.953,1.953,0,0,0-2.762-2.762l-2.112,2.112-2.112-2.112a1.953,1.953,0,0,0-2.762,2.762l2.112,2.112-2.112,2.112a1.953,1.953,0,0,0,2.762,2.762l2.112-2.112,2.112,2.112a1.953,1.953,0,0,0,2.762-2.762Z" transform="translate(-104.422 -106.225)" fill="#397797"/>
        <path id="Path_1013" data-name="Path 1013" d="M168.471,151.309l2.112-2.112a1.953,1.953,0,1,0-2.762-2.762l-2.112,2.112-2.112-2.112a1.953,1.953,0,1,0-2.762,2.762l2.112,2.112-2.112,2.112a1.953,1.953,0,1,0,2.762,2.762l2.112-2.112,2.112,2.112a1.953,1.953,0,1,0,2.762-2.762Z" transform="translate(-160.225 -81.479)" fill="#397797"/>
        <path id="Path_1014" data-name="Path 1014" d="M322.625,231.05l1.787-1.787a1.609,1.609,0,0,0-2.275-2.275l-1.787,1.787-1.787-1.787a1.609,1.609,0,0,0-2.275,2.275l1.787,1.787-1.787,1.787a1.609,1.609,0,0,0,2.275,2.275l1.787-1.787,1.787,1.787a1.609,1.609,0,0,0,2.275-2.275Z" transform="translate(-63.007 -31.066)" fill="#397797"/>
      </g>
    </g>
  </g>
</svg>
