<svg xmlns="http://www.w3.org/2000/svg" width="60" height="50" viewBox="0 0 60 50">
  <g id="visa" transform="translate(-1042 -9104)">
    <rect id="Rectangle_55" data-name="Rectangle 55" width="60" height="50" rx="5" transform="translate(1042 9104)" fill="#fff"/>
    <g id="Icon_visa" data-name="Icon / visa" transform="translate(1051 9123)">
      <path id="Path_885" data-name="Path 885" d="M184.8,192.472l2.146-12.072H190.3l-2.079,12.072Z" transform="translate(-169.307 -179.998)" fill="#3c58bf"/>
      <path id="Path_886" data-name="Path 886" d="M184.8,192.472l2.75-12.072h2.75l-2.079,12.072Z" transform="translate(-169.307 -179.998)" fill="#293688"/>
      <path id="Path_887" data-name="Path 887" d="M258.262,176.137a8.506,8.506,0,0,0-3.085-.537c-3.353,0-5.768,1.677-5.768,4.091,0,1.811,1.677,2.75,3.018,3.353s1.744,1.006,1.744,1.543c0,.8-1.073,1.207-2.012,1.207a7.29,7.29,0,0,1-3.219-.671l-.469-.2-.47,2.75a10.875,10.875,0,0,0,3.823.671c3.555,0,5.9-1.677,5.9-4.225,0-1.408-.872-2.482-2.884-3.353-1.207-.6-1.945-.939-1.945-1.543,0-.537.6-1.073,1.945-1.073a6.151,6.151,0,0,1,2.549.469l.335.134.536-2.616Z" transform="translate(-227.209 -175.6)" fill="#3c58bf"/>
      <path id="Path_888" data-name="Path 888" d="M258.262,176.137a8.506,8.506,0,0,0-3.085-.537c-3.353,0-5.164,1.677-5.164,4.091a3.506,3.506,0,0,0,2.414,3.353c1.341.6,1.744,1.006,1.744,1.543,0,.8-1.073,1.207-2.012,1.207a7.29,7.29,0,0,1-3.219-.671l-.469-.2-.47,2.75a10.875,10.875,0,0,0,3.823.671c3.555,0,5.9-1.677,5.9-4.225,0-1.408-.872-2.482-2.884-3.353-1.207-.6-1.945-.939-1.945-1.543,0-.537.6-1.073,1.945-1.073a6.151,6.151,0,0,1,2.549.469l.335.134.536-2.616Z" transform="translate(-227.209 -175.6)" fill="#293688"/>
      <path id="Path_889" data-name="Path 889" d="M365.174,180.4c-.8,0-1.408.067-1.744.872l-5.03,11.2h3.622l.671-2.012h4.293l.4,2.012h3.219L367.79,180.4Zm-1.543,8.048c.2-.6,1.341-3.555,1.341-3.555s.268-.738.469-1.207l.2,1.14s.671,3.018.8,3.689h-2.817Z" transform="translate(-328.353 -179.998)" fill="#3c58bf"/>
      <path id="Path_890" data-name="Path 890" d="M365.979,180.4c-.8,0-1.408.067-1.744.872l-5.835,11.2h3.622l.671-2.012h4.293l.4,2.012h3.219L367.79,180.4Zm-2.347,8.048c.268-.671,1.341-3.555,1.341-3.555s.268-.738.469-1.207l.2,1.14s.671,3.018.8,3.689h-2.817Z" transform="translate(-328.353 -179.998)" fill="#293688"/>
      <path id="Path_891" data-name="Path 891" d="M56.23,189.584l-.335-1.744a9.722,9.722,0,0,0-4.695-5.3l3.018,10.731H57.84L63.272,181.2H59.651Z" transform="translate(-46.908 -180.731)" fill="#3c58bf"/>
      <path id="Path_892" data-name="Path 892" d="M56.23,189.584l-.335-1.744a9.722,9.722,0,0,0-4.695-5.3l3.018,10.731H57.84L63.272,181.2H60.321Z" transform="translate(-46.908 -180.731)" fill="#293688"/>
      <path id="Path_893" data-name="Path 893" d="M0,180.4l.6.134c4.292,1.006,7.243,3.555,8.384,6.573l-1.207-5.7c-.2-.8-.8-1.006-1.543-1.006Z" transform="translate(0 -179.998)" fill="#ffbc00"/>
      <path id="Path_894" data-name="Path 894" d="M0,180.4H0c4.292,1.006,7.847,3.622,8.987,6.64l-1.14-4.762A1.637,1.637,0,0,0,6.237,181Z" transform="translate(0 -179.998)" fill="#f7981d"/>
      <path id="Path_895" data-name="Path 895" d="M0,180.4H0c4.292,1.006,7.847,3.622,8.987,6.64l-.8-2.616a2.365,2.365,0,0,0-1.408-1.945Z" transform="translate(0 -179.998)" fill="#ed7c00"/>
      <g id="Group_258" data-name="Group 258" transform="translate(4.359 1.744)">
        <path id="Path_896" data-name="Path 896" d="M60.317,203.107l-2.28-2.28-1.073,2.549-.268-1.677A9.722,9.722,0,0,0,52,196.4l3.018,10.731H58.64Z" transform="translate(-52 -196.4)" fill="#051244"/>
        <path id="Path_897" data-name="Path 897" d="M188.221,292.151l-2.884-2.951-.537,2.951Z" transform="translate(-173.667 -281.42)" fill="#051244"/>
        <path id="Path_898" data-name="Path 898" d="M253.835,274.8h0c.268.268.4.469.335.738,0,.8-1.073,1.207-2.012,1.207a7.29,7.29,0,0,1-3.219-.671l-.469-.2-.469,2.75a10.876,10.876,0,0,0,3.823.671,6.641,6.641,0,0,0,4.9-1.677Z" transform="translate(-231.568 -268.227)" fill="#051244"/>
        <path id="Path_899" data-name="Path 899" d="M364,228.386h3.152l.671-2.012h4.292l.4,2.012h3.219l-1.14-4.9-4.024-3.89.2,1.073s.671,3.018.8,3.689h-2.817c.268-.671,1.341-3.555,1.341-3.555s.268-.738.469-1.207" transform="translate(-337.843 -217.655)" fill="#051244"/>
      </g>
    </g>
  </g>
</svg>
